<mxfile host="app.diagrams.net" modified="2023-11-22T04:40:25.459Z" agent="Mozilla/5.0 (Windows NT 10.0; Win64; x64) AppleWebKit/537.36 (KHTML, like Gecko) Chrome/119.0.0.0 Safari/537.36" version="22.1.3" etag="T0eRVFWs1_tZ80RS7_1h" type="github">
  <diagram name="Page-1" id="CqEMZkOi6Y8l1CC1cE5U">
    <mxGraphModel>
      <root>
        <mxCell id="0" />
        <mxCell id="1" parent="0" />
      </root>
    </mxGraphModel>
  </diagram>
</mxfile>
